<svg width="32" height="32" viewBox="0 0 32 32" fill="none" xmlns="http://www.w3.org/2000/svg">
<path fill-rule="evenodd" clip-rule="evenodd" d="M6.82978 6.842C6.80717 6.60866 6.83365 6.37317 6.90752 6.15067C6.98138 5.92818 7.101 5.72361 7.25867 5.55011C7.41634 5.37662 7.60857 5.23804 7.82301 5.1433C8.03745 5.04856 8.26934 4.99975 8.50378 5C8.9016 5 9.28314 4.84197 9.56444 4.56066C9.84574 4.27936 10.0038 3.89783 10.0038 3.5C10.0038 3.10218 9.84574 2.72065 9.56444 2.43934C9.28314 2.15804 8.9016 2 8.50378 2C7.85148 1.99982 7.20634 2.136 6.60976 2.39981C6.01319 2.66362 5.47835 3.04923 5.03956 3.53189C4.60077 4.01456 4.26773 4.58362 4.06181 5.20256C3.85588 5.82151 3.78162 6.47667 3.84378 7.126L4.24178 11.318C4.28195 11.7462 4.16749 12.1746 3.91913 12.5257C3.67076 12.8768 3.3049 13.1273 2.88778 13.232L2.60978 13.302C2.00739 13.4516 1.47241 13.7986 1.09007 14.2875C0.70772 14.7765 0.5 15.3793 0.5 16C0.5 16.6207 0.70772 17.2235 1.09007 17.7125C1.47241 18.2014 2.00739 18.5484 2.60978 18.698L2.88978 18.768C3.30653 18.8731 3.67193 19.1238 3.9199 19.4749C4.16787 19.8259 4.28204 20.2541 4.24178 20.682L3.84178 24.874C3.7796 25.5235 3.85392 26.1788 4.05996 26.7979C4.26601 27.417 4.59923 27.9862 5.03823 28.4688C5.47723 28.9515 6.01232 29.3371 6.60913 29.6008C7.20595 29.8645 7.85131 30.0005 8.50378 30C8.9016 30 9.28314 29.842 9.56444 29.5607C9.84574 29.2794 10.0038 28.8978 10.0038 28.5C10.0038 28.1022 9.84574 27.7206 9.56444 27.4393C9.28314 27.158 8.9016 27 8.50378 27C8.26934 27.0003 8.03745 26.9514 7.82301 26.8567C7.60857 26.762 7.41634 26.6234 7.25867 26.4499C7.101 26.2764 6.98138 26.0718 6.90752 25.8493C6.83365 25.6268 6.80717 25.3913 6.82978 25.158L7.22978 20.966C7.33003 19.9066 7.07541 18.844 6.50594 17.9451C5.93647 17.0461 5.08444 16.3619 4.08378 16C5.0837 15.6374 5.93484 14.9529 6.50355 14.054C7.07225 13.1552 7.32629 12.0929 7.22578 11.034L6.82978 6.842ZM25.1798 25.158C25.2024 25.3915 25.1759 25.6272 25.1019 25.8498C25.0279 26.0724 24.9081 26.2771 24.7502 26.4506C24.5923 26.6242 24.3999 26.7627 24.1852 26.8573C23.9705 26.9519 23.7384 27.0005 23.5038 27C23.106 27 22.7244 27.158 22.4431 27.4393C22.1618 27.7206 22.0038 28.1022 22.0038 28.5C22.0038 28.8978 22.1618 29.2794 22.4431 29.5607C22.7244 29.842 23.106 30 23.5038 30C24.1561 30.0002 24.8012 29.864 25.3978 29.6002C25.9944 29.3364 26.5292 28.9508 26.968 28.4681C27.4068 27.9854 27.7398 27.4164 27.9458 26.7974C28.1517 26.1785 28.2259 25.5233 28.1638 24.874L27.7658 20.682C27.7256 20.2538 27.8401 19.8254 28.0884 19.4743C28.3368 19.1232 28.7027 18.8727 29.1198 18.768L29.3978 18.698C30.0002 18.5484 30.5351 18.2014 30.9175 17.7125C31.2998 17.2235 31.5076 16.6207 31.5076 16C31.5076 15.3793 31.2998 14.7765 30.9175 14.2875C30.5351 13.7986 30.0002 13.4516 29.3978 13.302L29.1178 13.232C28.701 13.1269 28.3356 12.8762 28.0877 12.5251C27.8397 12.1741 27.7255 11.7459 27.7658 11.318L28.1658 7.126C28.228 6.4765 28.1536 5.82117 27.9476 5.20209C27.7415 4.58301 27.4083 4.01385 26.9693 3.53115C26.5303 3.04846 25.9952 2.66289 25.3984 2.3992C24.8016 2.13552 24.1562 1.99954 23.5038 2C23.106 2 22.7244 2.15804 22.4431 2.43934C22.1618 2.72065 22.0038 3.10218 22.0038 3.5C22.0038 3.89783 22.1618 4.27936 22.4431 4.56066C22.7244 4.84197 23.106 5 23.5038 5C24.4958 5 25.2718 5.854 25.1798 6.842L24.7798 11.034C24.6793 12.0929 24.9333 13.1552 25.502 14.054C26.0707 14.9529 26.9219 15.6374 27.9218 16C26.9219 16.3626 26.0707 17.0471 25.502 17.946C24.9333 18.8448 24.6793 19.9071 24.7798 20.966L25.1798 25.158Z" fill="#329253"/>
<path d="M14.0734 11.6317C14.472 10.465 16.084 10.4297 16.5567 11.5257L16.5967 11.6323L17.1347 13.2057C17.258 13.5665 17.4572 13.8967 17.719 14.174C17.9807 14.4512 18.2989 14.6691 18.652 14.813L18.7967 14.867L20.37 15.4043C21.5367 15.803 21.572 17.415 20.4767 17.8877L20.37 17.9277L18.7967 18.4657C18.4357 18.5889 18.1054 18.7881 17.828 19.0498C17.5506 19.3116 17.3326 19.6298 17.1887 19.983L17.1347 20.127L16.5974 21.701C16.1987 22.8677 14.5867 22.903 14.1147 21.8077L14.0734 21.701L13.536 20.1277C13.4128 19.7667 13.2136 19.4364 12.9519 19.159C12.6901 18.8816 12.3719 18.6636 12.0187 18.5197L11.8747 18.4657L10.3014 17.9283C9.13402 17.5297 9.09869 15.9177 10.1947 15.4457L10.3014 15.4043L11.8747 14.867C12.2355 14.7437 12.5657 14.5445 12.843 14.2827C13.1202 14.021 13.3382 13.7028 13.482 13.3497L13.536 13.2057L14.0734 11.6317ZM20.6687 9.33301C20.7934 9.33301 20.9156 9.36799 21.0215 9.43399C21.1273 9.49998 21.2125 9.59434 21.2674 9.70634L21.2994 9.78434L21.5327 10.4683L22.2174 10.7017C22.3423 10.7441 22.4519 10.8228 22.5322 10.9276C22.6124 11.0324 22.6598 11.1586 22.6682 11.2904C22.6766 11.4221 22.6458 11.5534 22.5795 11.6675C22.5132 11.7817 22.4146 11.8736 22.296 11.9317L22.2174 11.9637L21.5334 12.197L21.3 12.8817C21.2575 13.0066 21.1788 13.1161 21.074 13.1963C20.9691 13.2765 20.8428 13.3238 20.7111 13.3322C20.5794 13.3405 20.4481 13.3096 20.334 13.2433C20.2199 13.177 20.128 13.0783 20.07 12.9597L20.038 12.8817L19.8047 12.1977L19.12 11.9643C18.995 11.9219 18.8855 11.8433 18.8052 11.7385C18.7249 11.6337 18.6776 11.5074 18.6692 11.3757C18.6607 11.2439 18.6916 11.1127 18.7579 10.9985C18.8241 10.8843 18.9228 10.7924 19.0414 10.7343L19.12 10.7023L19.804 10.469L20.0374 9.78434C20.0823 9.65262 20.1674 9.53828 20.2806 9.45734C20.3938 9.3764 20.5295 9.33292 20.6687 9.33301Z" fill="#F5702F"/>
</svg>
